<svg width="255" height="165" viewBox="0 0 255 165" fill="none" xmlns="http://www.w3.org/2000/svg">
<path d="M0 0H255V165H0V0Z" fill="#0E1A24"/>
<path d="M0 0H255V165H0V0Z" fill="#0E1A24"/>
<path d="M60.6816 63.0039C60.7402 63.0039 60.7956 63.0299 60.8477 63.082L71.7656 74.6641H71.834V64.7129C71.834 64.2441 71.6745 63.8503 71.3555 63.5312C71.3294 63.5052 71.2741 63.4727 71.1895 63.4336C71.1048 63.3945 71.0625 63.3132 71.0625 63.1895C71.0625 63.0658 71.1048 63.0039 71.1895 63.0039H74.3828C74.4674 63.0039 74.5098 63.0625 74.5098 63.1797C74.5098 63.2904 74.4935 63.3587 74.4609 63.3848C74.4349 63.4043 74.3958 63.4271 74.3438 63.4531C74.2917 63.4727 74.2233 63.5247 74.1387 63.6094C74.054 63.694 73.9629 63.8438 73.8652 64.0586C73.7741 64.2734 73.7285 64.4915 73.7285 64.7129V78.4824C73.7285 78.7233 73.696 78.8698 73.6309 78.9219C73.5723 78.974 73.4746 79 73.3379 79C73.2012 79 73.0905 78.9609 73.0059 78.8828L60.7305 65.8555V77.291C60.7305 77.7923 60.8737 78.1862 61.1602 78.4727C61.1862 78.4987 61.2415 78.5312 61.3262 78.5703C61.4108 78.6094 61.4531 78.6908 61.4531 78.8145C61.4531 78.9382 61.4108 79 61.3262 79H58.1816C58.097 79 58.0547 78.9447 58.0547 78.834C58.0547 78.7168 58.0677 78.6484 58.0938 78.6289C58.1263 78.6029 58.1686 78.5801 58.2207 78.5605C58.2728 78.5345 58.3151 78.5052 58.3477 78.4727C58.6732 78.1471 58.8359 77.7533 58.8359 77.291V64.7129C58.8359 64.2311 58.6829 63.8372 58.377 63.5312C58.3509 63.5052 58.2956 63.4727 58.2109 63.4336C58.1263 63.3945 58.084 63.3132 58.084 63.1895C58.084 63.0658 58.1263 63.0039 58.2109 63.0039H60.6816ZM80.8926 77.5059C80.8926 77.5059 83.0345 72.7109 87.3184 63.1211C87.3509 63.043 87.5104 63.0039 87.7969 63.0039C88.0833 63.0039 88.2461 63.043 88.2852 63.1211L94.9062 77.5059C95.1602 78.0983 95.4108 78.4531 95.6582 78.5703C95.7428 78.6094 95.7852 78.6908 95.7852 78.8145C95.7852 78.9382 95.7428 79 95.6582 79H92.123C92.0384 79 91.9961 78.9447 91.9961 78.834C91.9961 78.7168 92.0091 78.6484 92.0352 78.6289C92.0677 78.6029 92.11 78.5801 92.1621 78.5605C92.2142 78.5345 92.2565 78.5052 92.2891 78.4727C92.5365 78.2253 92.6602 77.9974 92.6602 77.7891C92.6602 77.5742 92.6374 77.3984 92.5918 77.2617L91.1758 73.9121H84.1348L82.748 77.2617C82.7025 77.3984 82.6797 77.5026 82.6797 77.5742V77.6816C82.6797 77.6882 82.6797 77.6947 82.6797 77.7012C82.6797 77.9681 82.8034 78.2253 83.0508 78.4727C83.0768 78.4987 83.1322 78.5312 83.2168 78.5703C83.3014 78.6094 83.3438 78.6908 83.3438 78.8145C83.3438 78.9382 83.3014 79 83.2168 79H80.1406C80.056 79 80.0137 78.9447 80.0137 78.834C80.0137 78.7168 80.0267 78.6484 80.0527 78.6289C80.0853 78.6029 80.1276 78.5768 80.1797 78.5508C80.3945 78.4596 80.6322 78.1113 80.8926 77.5059ZM84.8281 72.3594C84.8151 72.3789 84.8118 72.4049 84.8184 72.4375C84.8249 72.4635 84.8379 72.4766 84.8574 72.4766H90.4336C90.4531 72.4766 90.4661 72.4635 90.4727 72.4375C90.4792 72.4049 90.4759 72.3789 90.4629 72.3594L87.6406 66.2266H87.5723L84.8281 72.3594ZM101.084 64.7129C101.084 64.2507 100.921 63.8568 100.596 63.5312C100.57 63.5052 100.514 63.4727 100.43 63.4336C100.345 63.3945 100.303 63.3132 100.303 63.1895C100.303 63.0658 100.345 63.0039 100.43 63.0039H103.711C103.796 63.0039 103.838 63.0625 103.838 63.1797C103.838 63.2904 103.822 63.3587 103.789 63.3848C103.763 63.4043 103.724 63.4271 103.672 63.4531C103.62 63.4727 103.551 63.5247 103.467 63.6094C103.389 63.6875 103.304 63.8372 103.213 64.0586C103.122 64.2734 103.076 64.4915 103.076 64.7129V72.8086C103.076 74.3125 103.538 75.4811 104.463 76.3145C105.394 77.1413 106.53 77.5547 107.871 77.5547C108.659 77.5547 109.398 77.3561 110.088 76.959C110.785 76.5553 111.335 76.0247 111.738 75.3672C112.148 74.7031 112.354 74 112.354 73.2578V64.7129C112.354 64.2376 112.197 63.8438 111.885 63.5312C111.859 63.5052 111.803 63.4727 111.719 63.4336C111.634 63.3945 111.592 63.3132 111.592 63.1895C111.592 63.0658 111.634 63.0039 111.719 63.0039H114.766C114.85 63.0039 114.893 63.0625 114.893 63.1797C114.893 63.2904 114.876 63.3587 114.844 63.3848C114.818 63.4043 114.779 63.4271 114.727 63.4531C114.674 63.4727 114.606 63.5247 114.521 63.6094C114.443 63.6875 114.359 63.8372 114.268 64.0586C114.176 64.2734 114.131 64.4915 114.131 64.7129V73.2578C114.131 74.3776 113.841 75.4062 113.262 76.3438C112.689 77.2812 111.917 78.0169 110.947 78.5508C109.984 79.0846 108.913 79.3516 107.734 79.3516C106.562 79.3516 105.465 79.0781 104.443 78.5312C103.428 77.9844 102.614 77.2096 102.002 76.207C101.39 75.1979 101.084 74.0651 101.084 72.8086V64.7129ZM122.057 64.7129C122.057 64.2507 121.894 63.8568 121.568 63.5312C121.542 63.5052 121.487 63.4727 121.402 63.4336C121.318 63.3945 121.275 63.3132 121.275 63.1895C121.275 63.0658 121.318 63.0039 121.402 63.0039H124.684C124.768 63.0039 124.811 63.0625 124.811 63.1797C124.811 63.2904 124.794 63.3587 124.762 63.3848C124.736 63.4043 124.697 63.4271 124.645 63.4531C124.592 63.4727 124.524 63.5247 124.439 63.6094C124.361 63.6875 124.277 63.8372 124.186 64.0586C124.094 64.2734 124.049 64.4915 124.049 64.7129V72.8086C124.049 74.3125 124.511 75.4811 125.436 76.3145C126.367 77.1413 127.503 77.5547 128.844 77.5547C129.632 77.5547 130.37 77.3561 131.061 76.959C131.757 76.5553 132.307 76.0247 132.711 75.3672C133.121 74.7031 133.326 74 133.326 73.2578V64.7129C133.326 64.2376 133.17 63.8438 132.857 63.5312C132.831 63.5052 132.776 63.4727 132.691 63.4336C132.607 63.3945 132.564 63.3132 132.564 63.1895C132.564 63.0658 132.607 63.0039 132.691 63.0039H135.738C135.823 63.0039 135.865 63.0625 135.865 63.1797C135.865 63.2904 135.849 63.3587 135.816 63.3848C135.79 63.4043 135.751 63.4271 135.699 63.4531C135.647 63.4727 135.579 63.5247 135.494 63.6094C135.416 63.6875 135.331 63.8372 135.24 64.0586C135.149 64.2734 135.104 64.4915 135.104 64.7129V73.2578C135.104 74.3776 134.814 75.4062 134.234 76.3438C133.661 77.2812 132.89 78.0169 131.92 78.5508C130.956 79.0846 129.885 79.3516 128.707 79.3516C127.535 79.3516 126.438 79.0781 125.416 78.5312C124.4 77.9844 123.587 77.2096 122.975 76.207C122.363 75.1979 122.057 74.0651 122.057 72.8086V64.7129Z" fill="white"/>
<path d="M65.2109 101.109C66.388 101.109 67.4401 100.844 68.3672 100.312C69.2995 99.7812 70.0651 99.0677 70.6641 98.1719C70.7318 98.0625 70.7812 98.0286 70.8125 98.0703C70.849 98.112 70.8932 98.1693 70.9453 98.2422L71.1875 98.5938C71.2656 98.724 71.2943 98.8047 71.2734 98.8359C70.9609 99.4714 70.4375 100.094 69.7031 100.703C68.3438 101.839 66.8464 102.406 65.2109 102.406C64.263 102.406 63.375 102.224 62.5469 101.859C61.7188 101.49 61.0208 100.997 60.4531 100.383C59.8854 99.7682 59.4375 99.0495 59.1094 98.2266C58.7865 97.3984 58.625 96.5417 58.625 95.6562C58.625 94.7708 58.7995 93.9245 59.1484 93.1172C59.5026 92.3047 59.974 91.6042 60.5625 91.0156C61.151 90.4219 61.849 89.9479 62.6562 89.5938C63.4635 89.2344 64.2786 89.0547 65.1016 89.0547C66.0807 89.0547 67.0677 89.2448 68.0625 89.625L68.4219 89.7578C68.474 89.7786 68.5469 89.7578 68.6406 89.6953C68.7344 89.6328 68.8333 89.6016 68.9375 89.6016C69.0417 89.6016 69.1224 89.651 69.1797 89.75C69.2005 89.7656 69.2083 89.8203 69.2031 89.9141C69.1927 90.0651 69.2552 90.4115 69.3906 90.9531L69.5859 91.8125C69.638 92.0365 69.6641 92.1797 69.6641 92.2422C69.6641 92.2734 69.5964 92.3229 69.4609 92.3906C69.3307 92.4531 69.2552 92.4661 69.2344 92.4297C68.8021 91.6745 68.2578 91.1536 67.6016 90.8672C66.9505 90.5807 66.1354 90.4375 65.1562 90.4375C64.1823 90.4375 63.3021 90.6589 62.5156 91.1016C61.7292 91.5443 61.1224 92.1615 60.6953 92.9531C60.2682 93.7396 60.0547 94.6328 60.0547 95.6328C60.0547 96.2891 60.2057 96.9531 60.5078 97.625C60.8099 98.2917 61.1979 98.8802 61.6719 99.3906C62.151 99.8958 62.7057 100.31 63.3359 100.633C63.9661 100.951 64.5911 101.109 65.2109 101.109ZM74.9194 95.7734C74.5808 95.987 74.3308 96.2682 74.1694 96.6172C74.0079 96.9609 73.9272 97.3984 73.9272 97.9297C73.9272 98.4609 74.073 98.9922 74.3647 99.5234C74.6616 100.055 75.0652 100.477 75.5756 100.789C76.0913 101.096 76.6017 101.25 77.1069 101.25C77.6173 101.25 78.0314 101.135 78.3491 100.906C78.672 100.677 78.9168 100.38 79.0834 100.016C79.2553 99.651 79.3413 99.25 79.3413 98.8125C79.3413 97.8906 79.047 97.099 78.4584 96.4375C77.8751 95.776 77.0913 95.4453 76.1069 95.4453C75.6538 95.4453 75.2579 95.5547 74.9194 95.7734ZM73.9506 101.047C73.6069 100.714 73.3282 100.312 73.1147 99.8438C72.9064 99.375 72.8022 98.8203 72.8022 98.1797C72.8022 97.5391 72.9663 96.9167 73.2944 96.3125C73.6225 95.7083 74.0939 95.237 74.7084 94.8984C75.323 94.5599 75.961 94.3906 76.6225 94.3906C77.8308 94.3906 78.7918 94.7708 79.5053 95.5312C80.2189 96.2865 80.5756 97.2057 80.5756 98.2891C80.5808 99.3724 80.2058 100.286 79.4506 101.031C78.6954 101.771 77.7423 102.141 76.5913 102.141C76.1017 102.141 75.6251 102.042 75.1616 101.844C74.7032 101.646 74.2996 101.38 73.9506 101.047ZM82.2372 95.8594L82.245 95.7188C82.245 95.6927 82.258 95.6719 82.2841 95.6562C82.3153 95.6354 82.3335 95.6224 82.3388 95.6172L83.745 94.5781C83.7658 94.5625 83.8231 94.5547 83.9169 94.5547C84.0158 94.5547 84.0835 94.5677 84.12 94.5938C84.1565 94.6146 84.1747 94.6823 84.1747 94.7969V96.1406C84.2059 96.0885 84.2476 96.0312 84.2997 95.9688C84.6747 95.5 85.0653 95.138 85.4716 94.8828C85.8778 94.6276 86.3414 94.5 86.8622 94.5C87.0289 94.5 87.12 94.5208 87.1356 94.5625C87.2242 94.8021 87.2971 95.0286 87.3544 95.2422L87.5966 96.1641C87.6122 96.2214 87.5705 96.2786 87.4716 96.3359C87.3778 96.388 87.3049 96.4115 87.2528 96.4062C87.2007 96.401 87.146 96.3516 87.0888 96.2578L87.0028 96.1172C86.7216 95.8568 86.3934 95.7552 86.0184 95.8125C85.6486 95.8646 85.2971 96 84.9638 96.2188C84.6356 96.4375 84.3934 96.6745 84.2372 96.9297C84.232 96.9401 84.219 96.9609 84.1981 96.9922C84.1825 97.0182 84.1747 97.0365 84.1747 97.0469V100.633C84.1747 100.659 84.1721 100.716 84.1669 100.805C84.1669 100.888 84.1669 100.943 84.1669 100.969C84.2085 101.297 84.3205 101.5 84.5028 101.578C84.6851 101.656 84.7789 101.724 84.7841 101.781C84.7841 101.927 84.7502 102 84.6825 102H82.37C82.3023 102 82.2684 101.953 82.2684 101.859C82.2684 101.766 82.2893 101.706 82.3309 101.68C82.3726 101.654 82.4247 101.628 82.4872 101.602C82.5549 101.576 82.607 101.544 82.6434 101.508C82.7216 101.43 82.7815 101.341 82.8231 101.242C82.87 101.138 82.8908 101.016 82.8856 100.875C82.8856 100.734 82.8856 100.654 82.8856 100.633V96.5C82.8804 96.3281 82.8361 96.2083 82.7528 96.1406C82.6747 96.0677 82.5888 96.0286 82.495 96.0234C82.4013 96.0182 82.3388 96.0052 82.3075 95.9844C82.2606 95.9479 82.2372 95.9062 82.2372 95.8594ZM89.0238 95.8594L89.0316 95.7188C89.0316 95.6927 89.0446 95.6719 89.0706 95.6562C89.1019 95.6354 89.1201 95.6224 89.1253 95.6172L90.5316 94.5781C90.5524 94.5625 90.6097 94.5547 90.7034 94.5547C90.7972 94.5547 90.8623 94.5677 90.8988 94.5938C90.9404 94.6146 90.9613 94.6823 90.9613 94.7969V95.4375C91.0706 95.2969 91.2868 95.1328 91.6097 94.9453C92.2347 94.5755 92.8154 94.3906 93.3519 94.3906C94.4404 94.3906 95.3415 94.7682 96.055 95.5234C96.7685 96.2786 97.1253 97.2005 97.1253 98.2891C97.1253 99.3724 96.7477 100.286 95.9925 101.031C95.2425 101.771 94.2894 102.141 93.1331 102.141C92.3519 102.141 91.6279 101.901 90.9613 101.422V103.859C90.9613 103.885 90.9586 103.94 90.9534 104.023C90.9534 104.112 90.956 104.167 90.9613 104.188C90.9977 104.526 91.1071 104.732 91.2894 104.805C91.4769 104.883 91.5706 104.951 91.5706 105.008C91.5706 105.154 91.5368 105.227 91.4691 105.227H89.1566C89.0889 105.227 89.055 105.18 89.055 105.086C89.055 104.992 89.0758 104.932 89.1175 104.906C89.1592 104.88 89.2139 104.854 89.2816 104.828C89.3493 104.802 89.4014 104.771 89.4378 104.734C89.5993 104.573 89.6774 104.391 89.6722 104.188C89.6722 103.99 89.6722 103.88 89.6722 103.859V96.5C89.667 96.3281 89.6227 96.2083 89.5394 96.1406C89.4613 96.0677 89.3753 96.0286 89.2816 96.0234C89.1878 96.0182 89.1253 96.0052 89.0941 95.9844C89.0472 95.9479 89.0238 95.9062 89.0238 95.8594ZM95.1097 96.5234C94.8597 96.2214 94.5394 95.987 94.1488 95.8203C93.7581 95.6484 93.2868 95.5625 92.7347 95.5625C92.1878 95.5625 91.5967 95.875 90.9613 96.5V99.5859C91.2581 100.096 91.6566 100.503 92.1566 100.805C92.6618 101.102 93.1644 101.25 93.6644 101.25C94.1644 101.25 94.5732 101.135 94.8909 100.906C95.2139 100.677 95.4586 100.38 95.6253 100.016C95.7972 99.651 95.8831 99.25 95.8831 98.8125C95.8831 98.3698 95.8154 97.9531 95.68 97.5625C95.5498 97.1667 95.3597 96.8203 95.1097 96.5234ZM100.287 95.7734C99.9483 95.987 99.6983 96.2682 99.5369 96.6172C99.3754 96.9609 99.2947 97.3984 99.2947 97.9297C99.2947 98.4609 99.4405 98.9922 99.7322 99.5234C100.029 100.055 100.433 100.477 100.943 100.789C101.459 101.096 101.969 101.25 102.474 101.25C102.985 101.25 103.399 101.135 103.717 100.906C104.039 100.677 104.284 100.38 104.451 100.016C104.623 99.651 104.709 99.25 104.709 98.8125C104.709 97.8906 104.414 97.099 103.826 96.4375C103.243 95.776 102.459 95.4453 101.474 95.4453C101.021 95.4453 100.625 95.5547 100.287 95.7734ZM99.3181 101.047C98.9744 100.714 98.6957 100.312 98.4822 99.8438C98.2739 99.375 98.1697 98.8203 98.1697 98.1797C98.1697 97.5391 98.3338 96.9167 98.6619 96.3125C98.99 95.7083 99.4614 95.237 100.076 94.8984C100.691 94.5599 101.329 94.3906 101.99 94.3906C103.198 94.3906 104.159 94.7708 104.873 95.5312C105.586 96.2865 105.943 97.2057 105.943 98.2891C105.948 99.3724 105.573 100.286 104.818 101.031C104.063 101.771 103.11 102.141 101.959 102.141C101.469 102.141 100.993 102.042 100.529 101.844C100.071 101.646 99.6671 101.38 99.3181 101.047ZM107.605 95.8594L107.612 95.7188C107.612 95.6927 107.626 95.6719 107.652 95.6562C107.683 95.6354 107.701 95.6224 107.706 95.6172L109.112 94.5781C109.133 94.5625 109.191 94.5547 109.284 94.5547C109.383 94.5547 109.451 94.5677 109.487 94.5938C109.524 94.6146 109.542 94.6823 109.542 94.7969V96.1406C109.573 96.0885 109.615 96.0312 109.667 95.9688C110.042 95.5 110.433 95.138 110.839 94.8828C111.245 94.6276 111.709 94.5 112.23 94.5C112.396 94.5 112.487 94.5208 112.503 94.5625C112.592 94.8021 112.665 95.0286 112.722 95.2422L112.964 96.1641C112.98 96.2214 112.938 96.2786 112.839 96.3359C112.745 96.388 112.672 96.4115 112.62 96.4062C112.568 96.401 112.514 96.3516 112.456 96.2578L112.37 96.1172C112.089 95.8568 111.761 95.7552 111.386 95.8125C111.016 95.8646 110.665 96 110.331 96.2188C110.003 96.4375 109.761 96.6745 109.605 96.9297C109.599 96.9401 109.586 96.9609 109.566 96.9922C109.55 97.0182 109.542 97.0365 109.542 97.0469V100.633C109.542 100.659 109.54 100.716 109.534 100.805C109.534 100.888 109.534 100.943 109.534 100.969C109.576 101.297 109.688 101.5 109.87 101.578C110.053 101.656 110.146 101.724 110.152 101.781C110.152 101.927 110.118 102 110.05 102H107.737C107.67 102 107.636 101.953 107.636 101.859C107.636 101.766 107.657 101.706 107.698 101.68C107.74 101.654 107.792 101.628 107.855 101.602C107.922 101.576 107.974 101.544 108.011 101.508C108.089 101.43 108.149 101.341 108.191 101.242C108.237 101.138 108.258 101.016 108.253 100.875C108.253 100.734 108.253 100.654 108.253 100.633V96.5C108.248 96.3281 108.204 96.2083 108.12 96.1406C108.042 96.0677 107.956 96.0286 107.862 96.0234C107.769 96.0182 107.706 96.0052 107.675 95.9844C107.628 95.9479 107.605 95.9062 107.605 95.8594ZM115.313 100.023C115.313 100.372 115.464 100.635 115.766 100.812C116.068 100.984 116.376 101.07 116.688 101.07C117.001 101.07 117.232 101.057 117.383 101.031C117.54 101.005 117.699 100.958 117.86 100.891C118.162 100.766 118.43 100.635 118.665 100.5C118.665 100.5 118.787 100.432 119.032 100.297L118.579 98.2188C118.391 98.2917 118.159 98.3724 117.883 98.4609L117.133 98.6953C115.92 99.0599 115.313 99.5026 115.313 100.023ZM118.43 97.4141C118.274 95.987 117.86 95.2734 117.188 95.2734C116.777 95.2734 116.417 95.4219 116.11 95.7188C115.808 96.0104 115.657 96.3542 115.657 96.75L115.727 97.0703C115.727 97.112 115.675 97.1771 115.571 97.2656C115.472 97.3542 115.404 97.3828 115.368 97.3516L114.462 96.1875C114.462 96.1198 114.519 96.0443 114.633 95.9609C114.753 95.8776 114.855 95.7943 114.938 95.7109L115.126 95.5312C115.396 95.2604 115.587 95.0885 115.696 95.0156L116.079 94.7656C116.454 94.5208 116.87 94.3984 117.329 94.3984C118.001 94.3984 118.511 94.5807 118.86 94.9453C119.1 95.1953 119.266 95.4427 119.36 95.6875C119.454 95.9271 119.521 96.1224 119.563 96.2734C119.652 96.5964 119.725 96.9714 119.782 97.3984L119.868 98C119.899 98.2396 119.93 98.4635 119.962 98.6719C119.998 98.8802 120.021 99.0234 120.032 99.1016C120.042 99.1745 120.068 99.3073 120.11 99.5C120.152 99.6875 120.191 99.8438 120.227 99.9688C120.337 100.339 120.464 100.617 120.61 100.805C120.756 100.987 120.917 101.078 121.094 101.078C121.277 101.078 121.404 101.026 121.477 100.922C121.613 100.724 121.712 100.625 121.774 100.625C121.805 100.625 121.857 100.661 121.93 100.734C122.003 100.807 122.04 100.862 122.04 100.898C122.04 100.935 121.956 101.057 121.79 101.266C121.628 101.469 121.443 101.669 121.235 101.867C121.032 102.065 120.886 102.164 120.798 102.164C120.464 102.164 120.146 102.034 119.844 101.773C119.548 101.508 119.365 101.229 119.298 100.938C119.126 101.094 118.834 101.284 118.423 101.508C117.61 101.945 116.959 102.164 116.469 102.164C115.98 102.164 115.566 102.094 115.227 101.953C114.894 101.812 114.615 101.596 114.391 101.305C114.173 101.013 114.063 100.708 114.063 100.391C114.063 100.073 114.107 99.8073 114.196 99.5938C114.284 99.3802 114.399 99.1979 114.54 99.0469C114.68 98.8906 114.855 98.7474 115.063 98.6172C115.271 98.4818 115.482 98.3698 115.696 98.2812C116.144 98.099 116.639 97.9375 117.18 97.7969C117.727 97.651 118.144 97.5234 118.43 97.4141ZM124.529 93.1641C124.545 93.0599 124.639 93.0078 124.811 93.0078C124.988 93.0078 125.076 93.0599 125.076 93.1641V94.5547H126.459C126.725 94.5547 126.857 94.5885 126.857 94.6562V95.3438C126.857 95.4115 126.725 95.4453 126.459 95.4453H125.076V100.297C125.076 100.917 125.259 101.263 125.623 101.336C125.899 101.393 126.186 101.289 126.482 101.023C126.602 100.914 126.686 100.888 126.732 100.945C126.785 101.003 126.821 101.047 126.842 101.078C126.863 101.109 126.873 101.141 126.873 101.172C126.873 101.198 126.873 101.219 126.873 101.234C126.878 101.26 126.85 101.305 126.787 101.367L126.623 101.508C126.081 101.977 125.553 102.19 125.037 102.148C124.527 102.107 124.167 101.807 123.959 101.25C123.844 100.948 123.787 100.581 123.787 100.148V95.4453H123.428C123.162 95.4453 123.029 95.4115 123.029 95.3438V94.6562C123.029 94.5885 123.139 94.5547 123.357 94.5547C123.743 94.5547 124.019 94.4193 124.186 94.1484C124.357 93.8776 124.472 93.5495 124.529 93.1641ZM130.152 90.6641V91.2969C130.152 91.349 130.139 91.3854 130.113 91.4062C130.087 91.4271 129.975 91.474 129.777 91.5469C129.584 91.6198 129.441 91.6797 129.347 91.7266C129.253 91.7734 129.173 91.8073 129.105 91.8281C129.043 91.849 129.003 91.8516 128.988 91.8359C128.972 91.8151 128.964 91.7135 128.964 91.5312V90.7891C128.964 90.7734 128.962 90.75 128.957 90.7188C128.957 90.6875 128.957 90.6667 128.957 90.6562C128.962 90.6458 128.964 90.6302 128.964 90.6094C128.97 90.5885 128.983 90.5677 129.003 90.5469C129.024 90.526 129.131 90.4792 129.324 90.4062C129.522 90.3333 129.668 90.2734 129.761 90.2266C129.975 90.1276 130.092 90.0911 130.113 90.1172C130.139 90.138 130.152 90.3203 130.152 90.6641ZM128.371 102C128.303 102 128.269 101.953 128.269 101.859C128.269 101.766 128.29 101.706 128.332 101.68C128.373 101.654 128.428 101.628 128.496 101.602C128.751 101.497 128.881 101.247 128.886 100.852V96.5C128.886 96.3333 128.845 96.2135 128.761 96.1406C128.678 96.0677 128.589 96.0286 128.496 96.0234C128.402 96.0182 128.337 96.0026 128.3 95.9766C128.264 95.9505 128.246 95.8984 128.246 95.8203C128.246 95.737 128.248 95.6901 128.253 95.6797C128.264 95.6693 128.279 95.6589 128.3 95.6484C128.321 95.6328 128.334 95.6224 128.339 95.6172L129.746 94.5781C129.782 94.5521 129.811 94.5469 129.832 94.5625C129.852 94.5729 129.915 94.5938 130.019 94.625C130.123 94.6562 130.175 94.7135 130.175 94.7969V100.883C130.175 101.263 130.303 101.503 130.558 101.602C130.709 101.664 130.785 101.724 130.785 101.781C130.785 101.927 130.751 102 130.683 102H128.371ZM134.618 95.7734C134.28 95.987 134.03 96.2682 133.868 96.6172C133.707 96.9609 133.626 97.3984 133.626 97.9297C133.626 98.4609 133.772 98.9922 134.063 99.5234C134.36 100.055 134.764 100.477 135.274 100.789C135.79 101.096 136.3 101.25 136.806 101.25C137.316 101.25 137.73 101.135 138.048 100.906C138.371 100.677 138.616 100.38 138.782 100.016C138.954 99.651 139.04 99.25 139.04 98.8125C139.04 97.8906 138.746 97.099 138.157 96.4375C137.574 95.776 136.79 95.4453 135.806 95.4453C135.353 95.4453 134.957 95.5547 134.618 95.7734ZM133.649 101.047C133.306 100.714 133.027 100.312 132.813 99.8438C132.605 99.375 132.501 98.8203 132.501 98.1797C132.501 97.5391 132.665 96.9167 132.993 96.3125C133.321 95.7083 133.793 95.237 134.407 94.8984C135.022 94.5599 135.66 94.3906 136.321 94.3906C137.53 94.3906 138.491 94.7708 139.204 95.5312C139.918 96.2865 140.274 97.2057 140.274 98.2891C140.28 99.3724 139.905 100.286 139.149 101.031C138.394 101.771 137.441 102.141 136.29 102.141C135.8 102.141 135.324 102.042 134.86 101.844C134.402 101.646 133.998 101.38 133.649 101.047ZM142.053 102C141.985 102 141.952 101.953 141.952 101.859C141.952 101.766 141.972 101.706 142.014 101.68C142.061 101.654 142.116 101.628 142.178 101.602C142.246 101.576 142.298 101.544 142.334 101.508C142.496 101.346 142.574 101.167 142.569 100.969C142.569 100.766 142.569 100.654 142.569 100.633V96.5C142.569 96.3333 142.527 96.2135 142.444 96.1406C142.36 96.0677 142.272 96.0286 142.178 96.0234C142.084 96.0182 142.022 96.0052 141.991 95.9844C141.965 95.9583 141.946 95.9349 141.936 95.9141C141.931 95.8932 141.926 95.875 141.92 95.8594C141.92 95.8438 141.92 95.8203 141.92 95.7891C141.926 95.7578 141.928 95.7344 141.928 95.7188C141.928 95.7031 141.931 95.6901 141.936 95.6797C141.946 95.6693 141.962 95.6589 141.983 95.6484C142.004 95.6328 142.017 95.6224 142.022 95.6172L143.428 94.5781C143.449 94.5625 143.506 94.5547 143.6 94.5547C143.694 94.5547 143.761 94.5677 143.803 94.5938C143.845 94.6146 143.866 94.6823 143.866 94.7969V95.375L144.264 95.1406L144.498 95.0234C145.222 94.6589 145.899 94.4766 146.53 94.4766C147.16 94.4766 147.78 94.7005 148.389 95.1484C148.665 95.3516 148.889 95.599 149.061 95.8906C149.238 96.1771 149.327 96.4766 149.327 96.7891V100.969C149.327 101.083 149.358 101.206 149.42 101.336C149.483 101.461 149.584 101.552 149.725 101.609C149.866 101.667 149.936 101.724 149.936 101.781C149.936 101.927 149.902 102 149.834 102H147.545C147.478 102 147.444 101.953 147.444 101.859C147.444 101.766 147.465 101.706 147.506 101.68C147.553 101.654 147.608 101.628 147.67 101.602C147.738 101.576 147.793 101.542 147.834 101.5C147.881 101.458 147.92 101.411 147.952 101.359C147.983 101.307 148.004 101.247 148.014 101.18C148.03 101.107 148.037 101.055 148.037 101.023C148.043 100.987 148.043 100.922 148.037 100.828C148.037 100.729 148.037 100.664 148.037 100.633V96.9844C148.037 96.6719 147.933 96.3984 147.725 96.1641C147.324 95.7266 146.761 95.5078 146.037 95.5078C145.314 95.5078 144.587 95.6901 143.858 96.0547V100.969C143.858 101.083 143.889 101.206 143.952 101.336C144.014 101.461 144.116 101.552 144.256 101.609C144.397 101.667 144.467 101.724 144.467 101.781C144.467 101.927 144.433 102 144.366 102H142.053Z" fill="#9F9F9F"/>
<path d="M193.885 94.1021C193.434 94.1021 176.248 94.383 175.741 94.102L173.784 85.165C173.692 84.7402 172.33 83.6074 172.33 83.3463L185.282 83.6074L188.208 88.2068L195.354 86.8673M195.354 86.8673C195.447 87.0907 195.304 90.5987 195.233 90.8836M195.354 86.8673V94.102" stroke="white"/>
<path d="M182.398 77.798C182.398 77.9905 182.236 81.7387 182.398 81.3107C182.56 80.8827 189.121 80.9211 193.099 83.5113C193.099 83.5113 192.879 78.0372 193.099 76.8269C193.319 75.6165 193.951 74.4887 193.951 74.4887C193.951 74.4887 187.742 74.5336 187.684 74.5437M176.621 79.7152C180.352 78.3411 181.703 76.9075 188.477 78.2573C186.797 74.5288 188.312 70.665 188.862 70.3074C189.413 69.9498 182.673 70.9951 182.673 70.9951L176.621 71.9579C175.139 74.9303 175.319 76.6337 176.621 79.7152ZM181.71 64.2557C181.6 64.2282 181.188 62.8252 181.215 62.7295C181.243 62.6338 185.671 62 185.781 62C185.892 62 186.084 62.7427 186.167 62.7427C186.249 62.7427 188.67 62.7152 188.752 62.7427C188.835 62.7702 185.644 63.788 185.561 63.8155C185.479 63.843 185.424 62.9353 185.341 62.8528C185.259 62.7702 181.82 64.2832 181.71 64.2557ZM190.843 72.9207C190.843 72.8657 190.678 71.8479 190.733 71.7654C190.788 71.6828 193.731 71.7379 193.786 71.7654C193.841 71.7929 193.869 72.1505 193.951 72.2055C194.034 72.2605 196.427 72.3981 196.235 72.4256C196.042 72.4531 193.786 72.9482 193.731 72.9207C193.676 72.8932 193.594 72.4531 193.539 72.4256C193.484 72.3981 190.843 72.9757 190.843 72.9207Z" stroke="white"/>
<path d="M187.46 69.9498C187.746 70.3074 179.125 68.9871 177.502 71.2702C176.866 68.7743 176.962 67.984 178.189 66.0712L186.909 64.4207C185.506 66.3463 187.173 69.5922 187.46 69.9498Z" stroke="white"/>
<path d="M172 94.1019H196.977V94.5971H172V94.1019Z" fill="white"/>
<path d="M177.942 94.8997H190.981V95.2848H177.942V94.8997Z" fill="white"/>
<path d="M180.748 95.6149H188.23V96H180.748V95.6149Z" fill="white"/>
<line x1="195" y1="90.5" x2="220" y2="90.5" stroke="white"/>
<line x1="59" y1="73.5" x2="35" y2="73.5" stroke="white"/>
<line x1="64.5" y1="126" x2="64.5" y2="102" stroke="#9F9F9F"/>
</svg>
